<svg width="65" height="65" viewBox="0 0 65 65" fill="none" xmlns="http://www.w3.org/2000/svg">
<path d="M62.2143 51.0706H60.1715L46.0995 24.689C46.0987 24.6875 46.098 24.6865 46.0972 24.6853C46.0547 24.606 46.0086 24.5301 45.9601 24.4569C45.9572 24.4526 45.9552 24.4478 45.9521 24.444C45.9016 24.3688 45.8475 24.2969 45.7909 24.2282C45.741 24.1676 45.6874 24.1102 45.6327 24.054C45.625 24.046 45.618 24.0372 45.6101 24.0292C45.5608 23.98 45.5085 23.9342 45.456 23.8888C45.44 23.8755 45.4254 23.8607 45.4091 23.8472C45.3651 23.8108 45.3181 23.7779 45.2718 23.7444C45.2444 23.7244 45.2177 23.703 45.1896 23.6842C45.154 23.6602 45.1161 23.6396 45.0792 23.6172C45.0378 23.5921 44.9969 23.5661 44.9544 23.5433C44.9291 23.5299 44.9027 23.5189 44.8771 23.5063C44.8208 23.4785 44.7649 23.4505 44.7073 23.4265C44.6933 23.4208 44.6784 23.4163 44.6643 23.4109C44.5946 23.3834 44.5244 23.357 44.4528 23.3351C44.4487 23.3339 44.4443 23.3332 44.4402 23.3318C44.3455 23.3036 44.2492 23.2815 44.1518 23.2632C44.0777 23.2495 44.003 23.2364 43.927 23.2287C43.924 23.2283 43.9209 23.2286 43.9178 23.2283C43.8279 23.2192 43.7368 23.2146 43.6446 23.2146C43.6435 23.2146 43.6426 23.2142 43.6414 23.2142H36.2131H27.8208L22.0516 10.0266C21.6079 9.01263 20.6064 8.35742 19.4996 8.35742H2.7856C1.24718 8.35742 0 9.60486 0 11.143V25.9997V40.8563C0 41.745 0.417675 42.5345 1.06539 43.0445C1.51734 42.1863 2.09904 41.4073 2.7856 40.7333C4.46036 39.0894 6.75212 38.0726 9.27835 38.0706C9.28076 38.0706 9.28305 38.0706 9.28546 38.0706H29.7132C29.7156 38.0706 29.7179 38.0706 29.7204 38.0706C31.0381 38.0718 32.2914 38.3503 33.4276 38.8483C34.4694 39.305 35.4122 39.947 36.2132 40.7333C36.8996 41.4073 37.4814 42.1863 37.9334 43.0445C38.6123 44.3338 38.9988 45.8004 38.9988 47.3561C38.9988 48.6763 38.72 49.9321 38.2211 51.0702C37.7644 52.1122 37.1223 53.0549 36.3359 53.8558C35.6623 54.5422 34.8831 55.1238 34.025 55.576C34.025 55.576 34.0249 55.5761 34.0246 55.5761C34.5347 56.2239 35.3244 56.6414 36.2128 56.6414H36.2132H58.4862C58.4915 56.6414 58.4971 56.6422 58.5026 56.6422C58.5086 56.6422 58.5146 56.6414 58.5207 56.6414H62.2144C63.7528 56.6414 65 55.3943 65 53.8558C64.9999 52.318 63.7527 51.0706 62.2143 51.0706Z" fill="#FFB655"/>
<path d="M5.57129 13.9289V23.2144H21.7399L17.6775 13.9289H5.57129Z" fill="white"/>
<path d="M29.7168 43.6422C29.7156 43.6422 29.7143 43.6422 29.7132 43.6422H9.28542C9.28415 43.6422 9.28301 43.6422 9.28174 43.6422C7.23539 43.6445 5.57129 45.3097 5.57129 47.3563C5.57129 49.4045 7.23742 51.0705 9.28542 51.0705H29.7132C31.7612 51.0705 33.4275 49.4045 33.4275 47.3563C33.4275 45.3097 31.7632 43.6445 29.7168 43.6422Z" fill="#87868D"/>
<path d="M36.3359 53.8562C37.1223 53.0553 37.7644 52.1126 38.2211 51.0706C38.7199 49.9323 38.9988 48.6767 38.9988 47.3565C38.9988 45.8008 38.6123 44.3345 37.9334 43.0449C37.4813 42.1867 36.8997 41.4077 36.2132 40.7337C35.412 39.9474 34.4694 39.3054 33.4276 38.8487C32.2914 38.3507 31.0381 38.0722 29.7204 38.071C29.7179 38.071 29.7156 38.071 29.7132 38.071H9.28546C9.28305 38.071 9.28076 38.071 9.27835 38.071C6.75237 38.073 4.46036 39.0898 2.7856 40.7337C2.09917 41.4077 1.51734 42.1867 1.06539 43.0449C0.386445 44.3344 0 45.8008 0 47.3565C0 52.4765 4.16545 56.6419 9.28546 56.6419H29.7132C31.2689 56.6419 32.7354 56.2556 34.0246 55.5767C34.883 55.1242 35.6623 54.5426 36.3359 53.8562ZM29.7132 51.0706H9.28546C7.23746 51.0706 5.57133 49.4046 5.57133 47.3565C5.57133 45.3097 7.23568 43.6445 9.28178 43.6423C9.28305 43.6423 9.28419 43.6423 9.28546 43.6423H29.7132C29.7143 43.6423 29.7156 43.6423 29.7169 43.6423C31.7634 43.6446 33.4276 45.3099 33.4276 47.3565C33.4276 49.4046 31.7612 51.0706 29.7132 51.0706Z" fill="#57565C"/>
<path d="M2.7856 23.2144H5.5712V13.9289H17.6773L21.7397 23.2144H24.7803H27.8207L22.0515 10.0268C21.6078 9.01278 20.6062 8.35757 19.4995 8.35757H2.7856C1.24718 8.3577 0 9.60501 0 11.1433V26C0 24.4618 1.24718 23.2144 2.7856 23.2144Z" fill="#AA6100"/>
<path d="M62.2143 51.0706H60.1715L46.0995 24.689C46.0988 24.6875 46.098 24.6865 46.0973 24.6854C46.0547 24.606 46.0086 24.5301 45.9601 24.457C45.9572 24.4527 45.9552 24.4478 45.9522 24.444C45.9016 24.3689 45.8475 24.2969 45.7909 24.2282C45.741 24.1676 45.6875 24.1103 45.6327 24.054C45.625 24.046 45.618 24.0373 45.6101 24.0293C45.5609 23.98 45.5086 23.9342 45.456 23.8889C45.44 23.8755 45.4254 23.8607 45.4092 23.8472C45.3651 23.8108 45.3181 23.7779 45.2718 23.7444C45.2444 23.7245 45.2177 23.703 45.1897 23.6842C45.154 23.6602 45.1162 23.6396 45.0792 23.6172C45.0378 23.5922 44.997 23.5661 44.9544 23.5433C44.9292 23.53 44.9028 23.5189 44.8771 23.5063C44.8209 23.4785 44.7649 23.4505 44.7074 23.4265C44.6933 23.4208 44.6784 23.4163 44.6643 23.4109C44.5946 23.3835 44.5244 23.3571 44.4528 23.3351C44.4488 23.3339 44.4443 23.3332 44.4403 23.3319C44.3456 23.3037 44.2492 23.2816 44.1518 23.2634C44.0777 23.2496 44.003 23.2366 43.927 23.2288C43.9241 23.2284 43.9209 23.2287 43.9179 23.2284C43.828 23.2193 43.7368 23.2147 43.6447 23.2147C43.6435 23.2147 43.6426 23.2144 43.6415 23.2144H36.2131C34.6747 23.2144 33.4275 24.4618 33.4275 26V28.7856V38.071V38.8487C34.4693 39.3054 35.412 39.9474 36.2131 40.7337C36.8995 41.4077 37.4813 42.1867 37.9333 43.0449C38.6122 44.3342 38.9987 45.8008 38.9987 47.3565C38.9987 48.6767 38.7199 49.9325 38.221 51.0706C37.7643 52.1126 37.1222 53.0553 36.3359 53.8562C35.6622 54.5426 34.883 55.1242 34.0249 55.5764C34.0249 55.5764 34.0248 55.5765 34.0245 55.5765C34.5346 56.2243 35.3243 56.6418 36.2127 56.6418H36.2131H58.4861C58.4914 56.6418 58.497 56.6426 58.5025 56.6426C58.5086 56.6426 58.5145 56.6418 58.5206 56.6418H62.2143C63.7527 56.6418 64.9999 55.3947 64.9999 53.8562C64.9999 52.318 63.7527 51.0706 62.2143 51.0706Z" fill="#EE8700"/>
</svg>
